<svg width="12" height="20" viewBox="0 0 12 20" fill="none" xmlns="http://www.w3.org/2000/svg">
<path d="M5.75 0C6.4414 0 7 0.558594 7 1.25V2.64453C7.0625 2.65234 7.12109 2.66016 7.18359 2.67188C7.19921 2.67578 7.21093 2.67578 7.22656 2.67969L9.10156 3.02344C9.78125 3.14844 10.2305 3.80078 10.1055 4.47656C9.98046 5.15234 9.32812 5.60547 8.65234 5.48047L6.79687 5.14062C5.57421 4.96094 4.49609 5.08203 3.73828 5.38281C2.98046 5.68359 2.67578 6.09766 2.60546 6.48047C2.52734 6.89844 2.58593 7.13281 2.65234 7.27734C2.72265 7.42969 2.86718 7.60156 3.15234 7.79297C3.78906 8.21094 4.76562 8.48438 6.03125 8.82031L6.14453 8.85156C7.26171 9.14844 8.6289 9.50781 9.64453 10.1719C10.1992 10.5352 10.7227 11.0273 11.0469 11.7148C11.3789 12.4141 11.4492 13.1953 11.2969 14.0273C11.0273 15.5117 10.0039 16.5039 8.73437 17.0234C8.19921 17.2422 7.61718 17.3828 7 17.4531V18.75C7 19.4414 6.4414 20 5.75 20C5.05859 20 4.5 19.4414 4.5 18.75V17.3867C4.48437 17.3828 4.46484 17.3828 4.44921 17.3789H4.4414C3.48828 17.2305 1.92187 16.8203 0.867183 16.3516C0.238277 16.0703 -0.0468796 15.332 0.23437 14.7031C0.51562 14.0742 1.2539 13.7891 1.88281 14.0703C2.69921 14.4336 4.04296 14.793 4.82031 14.9141C6.0664 15.0977 7.09375 14.9922 7.78906 14.707C8.44921 14.4375 8.75 14.0469 8.83593 13.5781C8.91015 13.1641 8.85156 12.9258 8.78515 12.7812C8.71093 12.625 8.5664 12.4531 8.27734 12.2617C7.63671 11.8438 6.65625 11.5703 5.38671 11.2344L5.27734 11.207C4.16406 10.9102 2.79687 10.5469 1.78125 9.88281C1.22656 9.51953 0.707027 9.02344 0.382808 8.33594C0.0546829 7.63672 -0.0117234 6.85547 0.144527 6.02344C0.425777 4.53125 1.54296 3.5625 2.8125 3.05859C3.33203 2.85156 3.90234 2.71094 4.5 2.62891V1.25C4.5 0.558594 5.05859 0 5.75 0Z" fill="#4F46E5"/>
</svg>
